<svg xmlns="http://www.w3.org/2000/svg" xmlns:xlink="http://www.w3.org/1999/xlink" version="1.1" x="0px" y="0px"
  viewBox="0 0 100 125" style="enable-background:new 0 0 100 100;" xml:space="preserve">
  <g>
    <g>
      <path
        d="M50,72.6c-11.6,0-21.1-9.5-21.1-21.1c0-11.6,9.5-21.1,21.1-21.1s21.1,9.5,21.1,21.1    C71.1,63.1,61.6,72.6,50,72.6z M50,33c-10.2,0-18.5,8.3-18.5,18.5S39.8,70,50,70s18.5-8.3,18.5-18.5S60.2,33,50,33z" />
    </g>
    <g>
      <path
        d="M60.6,52.8c-0.7,0-1.3-0.6-1.3-1.3c0-5.2-4.2-9.3-9.3-9.3c-0.7,0-1.3-0.6-1.3-1.3c0-0.7,0.6-1.3,1.3-1.3    c6.6,0,11.9,5.3,11.9,11.9C61.9,52.2,61.3,52.8,60.6,52.8z" />
    </g>
    <g>
      <path
        d="M50,24.8c-0.7,0-1.3-0.6-1.3-1.3V2c0-0.7,0.6-1.3,1.3-1.3c0.7,0,1.3,0.6,1.3,1.3v21.5    C51.3,24.2,50.7,24.8,50,24.8z" />
    </g>
    <g>
      <path
        d="M59.6,26.5c-0.1,0-0.3,0-0.4-0.1c-0.7-0.2-1-1-0.8-1.6l4.1-11.3c0.2-0.7,1-1,1.6-0.8c0.7,0.2,1,1,0.8,1.6    l-4.1,11.3C60.6,26.1,60.1,26.5,59.6,26.5z" />
    </g>
    <g>
      <path
        d="M32,31.3c-0.4,0-0.7-0.2-1-0.5L17.2,14.4c-0.5-0.5-0.4-1.3,0.2-1.8c0.5-0.5,1.3-0.4,1.8,0.2L33,29.2    c0.5,0.5,0.4,1.3-0.2,1.8C32.6,31.2,32.3,31.3,32,31.3z" />
    </g>
    <g>
      <path
        d="M40.4,26.5c-0.5,0-1-0.3-1.2-0.8l-4.1-11.3c-0.2-0.7,0.1-1.4,0.8-1.6c0.7-0.2,1.4,0.1,1.6,0.8l4.1,11.3    c0.2,0.7-0.1,1.4-0.8,1.6C40.7,26.4,40.6,26.5,40.4,26.5z" />
    </g>
    <g>
      <path
        d="M22.4,47.9c-0.1,0-0.1,0-0.2,0L1.1,44.2c-0.7-0.1-1.2-0.8-1-1.5c0.1-0.7,0.8-1.2,1.5-1l21.1,3.7    c0.7,0.1,1.2,0.8,1,1.5C23.6,47.5,23,47.9,22.4,47.9z" />
    </g>
    <g>
      <path
        d="M25.7,38.8c-0.2,0-0.4-0.1-0.6-0.2l-10.4-6c-0.6-0.4-0.8-1.1-0.5-1.7c0.4-0.6,1.1-0.8,1.7-0.5l10.4,6    c0.6,0.4,0.8,1.1,0.5,1.7C26.6,38.5,26.2,38.8,25.7,38.8z" />
    </g>
    <g>
      <path
        d="M7.2,77.5c-0.4,0-0.9-0.2-1.1-0.6c-0.4-0.6-0.1-1.4,0.5-1.7l18.6-10.7c0.6-0.4,1.4-0.1,1.7,0.5    c0.4,0.6,0.1,1.4-0.5,1.7L7.8,77.3C7.6,77.5,7.4,77.5,7.2,77.5z" />
    </g>
    <g>
      <path
        d="M10.5,59.7c-0.6,0-1.1-0.4-1.3-1.1c-0.1-0.7,0.3-1.4,1-1.5l11.9-2.1c0.7-0.1,1.4,0.3,1.5,1    c0.1,0.7-0.3,1.4-1,1.5l-11.9,2.1C10.7,59.7,10.6,59.7,10.5,59.7z" />
    </g>
    <g>
      <path
        d="M33.1,99.3c-0.1,0-0.3,0-0.4-0.1c-0.7-0.2-1-1-0.8-1.6l7.3-20.2c0.2-0.7,1-1,1.6-0.8c0.7,0.2,1,1,0.8,1.6    l-7.3,20.2C34.1,98.9,33.6,99.3,33.1,99.3z" />
    </g>
    <g>
      <path
        d="M24.2,83.5c-0.3,0-0.6-0.1-0.8-0.3c-0.5-0.5-0.6-1.3-0.2-1.8l7.8-9.2c0.5-0.5,1.3-0.6,1.8-0.2    c0.5,0.5,0.6,1.3,0.2,1.8L25.2,83C25,83.3,24.6,83.5,24.2,83.5z" />
    </g>
    <g>
      <path
        d="M66.9,99.3c-0.5,0-1-0.3-1.2-0.8l-7.3-20.2c-0.2-0.7,0.1-1.4,0.8-1.6c0.7-0.2,1.4,0.1,1.6,0.8l7.3,20.2    c0.2,0.7-0.1,1.4-0.8,1.6C67.2,99.2,67.1,99.3,66.9,99.3z" />
    </g>
    <g>
      <path
        d="M50,92.8c-0.7,0-1.3-0.6-1.3-1.3V79.5c0-0.7,0.6-1.3,1.3-1.3c0.7,0,1.3,0.6,1.3,1.3v12.1    C51.3,92.3,50.7,92.8,50,92.8z" />
    </g>
    <g>
      <path
        d="M92.8,77.5c-0.2,0-0.4-0.1-0.6-0.2L73.6,66.6c-0.6-0.4-0.8-1.1-0.5-1.7c0.4-0.6,1.1-0.8,1.7-0.5    l18.6,10.7c0.6,0.4,0.8,1.1,0.5,1.7C93.7,77.3,93.3,77.5,92.8,77.5z" />
    </g>
    <g>
      <path
        d="M75.8,83.5c-0.4,0-0.7-0.2-1-0.5L67,73.8c-0.5-0.5-0.4-1.3,0.2-1.8c0.5-0.5,1.3-0.4,1.8,0.2l7.8,9.2    c0.5,0.5,0.4,1.3-0.2,1.8C76.3,83.4,76,83.5,75.8,83.5z" />
    </g>
    <g>
      <path
        d="M77.6,47.9c-0.6,0-1.1-0.4-1.3-1.1c-0.1-0.7,0.3-1.4,1-1.5l21.1-3.7c0.7-0.1,1.4,0.3,1.5,1    c0.1,0.7-0.3,1.4-1,1.5l-21.1,3.7C77.7,47.9,77.7,47.9,77.6,47.9z" />
    </g>
    <g>
      <path
        d="M89.5,59.7c-0.1,0-0.1,0-0.2,0l-11.9-2.1c-0.7-0.1-1.2-0.8-1-1.5c0.1-0.7,0.8-1.2,1.5-1l11.9,2.1    c0.7,0.1,1.2,0.8,1,1.5C90.6,59.3,90.1,59.7,89.5,59.7z" />
    </g>
    <g>
      <path
        d="M68,31.3c-0.3,0-0.6-0.1-0.8-0.3c-0.5-0.5-0.6-1.3-0.2-1.8l13.8-16.4c0.5-0.5,1.3-0.6,1.8-0.2    c0.5,0.5,0.6,1.3,0.2,1.8L69,30.9C68.7,31.2,68.4,31.3,68,31.3z" />
    </g>
    <g>
      <path
        d="M74.3,38.8c-0.4,0-0.9-0.2-1.1-0.6c-0.4-0.6-0.1-1.4,0.5-1.7l10.4-6c0.6-0.4,1.4-0.1,1.7,0.5    c0.4,0.6,0.1,1.4-0.5,1.7l-10.4,6C74.7,38.7,74.5,38.8,74.3,38.8z" />
    </g>
  </g>
</svg>